Coordinates
version=1
nRows=19
nColumns=33
inDegrees=yes

Units are S.I. units (second, meters, Newtons, ...)
Angles are in degrees.

endheader
time	ground_thorax_rot_x	ground_thorax_rot_y	ground_thorax_rot_z	ground_thorax_tx	ground_thorax_ty	ground_thorax_tz	clav_prot_r	clav_elev_r	scapula_abduction_r	scapula_elevation_r	scapula_upward_rot_r	scapula_winging_r	shoulder_elv_r	plane_of_elev_r	axial_rot_r	elbow_flexion_r	pro_sup_r	wrist_flex_r	wrist_dev_r	clav_prot_l	clav_elev_l	scapula_abduction_l	scapula_elevation_l	scapula_upward_rot_l	scapula_winging_l	shoulder_elv_l	plane_of_elev_l	axial_rot_l	elbow_flexion_l	pro_sup_l	wrist_flex_l	wrist_dev_l
      7.67000000	    -40.22629330	     -6.22005794	      8.36470782	   -242.73916427	    828.84604342	     10.20090785	     10.50159780	    -45.00000000	     40.75878923	    -45.00000000	    -45.00000000	   3500.74641427	   -105.29709649	    146.10209789	    179.99999979	   1089.35187936	     53.77934787	     26.31985646	     11.17638767	     14.20010977	     37.40746662	    -35.27023572	    -45.00000000	    -45.00000000	  -3518.60159585	    810.04513891	     18.65402423	   -179.99999979	   1789.56854801	    112.23470711	      8.61384378	    -12.84532650
      7.68000000	    -40.24946712	     -6.22821833	      8.27801201	   -240.89969735	    828.90987234	     10.26062775	     10.54136366	    -45.00000000	     40.87017958	    -45.00000000	    -45.00000000	   3500.88074568	   -105.15955036	    145.97189509	    179.99999979	   1089.53486380	     53.50695211	     26.24016747	     11.18688563	     14.24510700	     37.42862799	    -35.43620961	    -45.00000000	    -45.00000000	  -3518.60762459	    810.18113622	     18.70964232	   -179.99999979	   1789.39194713	    111.02670591	      8.57070010	    -12.67161751
      7.69000000	    -40.26373270	     -6.24943035	      8.19589570	   -238.84511155	    828.92998766	     10.30012907	     10.58358716	    -45.00000000	     40.97727119	    -45.00000000	    -45.00000000	   3501.04899977	   -105.00732486	    145.87228011	    179.99999979	   1089.78277434	     53.19223626	     26.13892035	     11.17418556	     14.38461577	     37.50614180	    -35.65413847	    -45.00000000	    -45.00000000	  -3518.61979577	    810.26615628	     18.74973500	   -179.99999979	   1789.20165956	    109.73927276	      8.53022563	    -12.47220130
      7.70000000	    -40.27351760	     -6.24486614	      8.10270220	   -236.57555995	    828.90249749	     10.32095558	     10.68246193	    -45.00000000	     41.10438383	    -45.00000000	    -45.00000000	   3501.17392473	   -104.85748931	    145.70436686	    179.99999979	   1089.98361355	     52.86223399	     26.04238440	     11.19353257	     14.36584954	     37.49452133	    -35.86260395	    -45.00000000	    -45.00000000	  -3518.64073336	    810.41171325	     18.82996803	   -179.99999979	   1788.97602490	    108.47817482	      8.48691314	    -12.28307781
      7.71000000	    -40.28138610	     -6.29894627	      8.03884631	   -234.09223089	    828.82084146	     10.32500909	     10.69828203	    -45.00000000	     41.21074985	    -45.00000000	    -45.00000000	   3501.37941941	   -104.71047343	    145.58443784	    179.99999979	   1090.22752594	     52.47229047	     25.91700728	     11.19666501	     14.51781734	     37.56935873	    -36.07538567	    -45.00000000	    -45.00000000	  -3518.67782956	    810.51595184	     18.86745669	   -179.99999979	   1788.77570260	    107.16689495	      8.44234242	    -12.06060271
      7.72000000	    -40.29876492	     -6.32842952	      7.98188052	   -231.39233487	    828.67531300	     10.31410761	     10.73550471	    -45.00000000	     41.35541401	    -45.00000000	    -45.00000000	   3501.55808761	   -104.53546484	    145.47010735	    179.99999979	   1090.47351456	     52.02584932	     25.78217625	     11.21449936	     14.62545392	     37.62853376	    -36.35513392	    -45.00000000	    -45.00000000	  -3518.71924052	    810.63948691	     18.91849676	   -179.99999979	   1788.55418425	    105.83395879	      8.39472131	    -11.82632982
      7.73000000	    -40.31072876	     -6.37289618	      7.89670779	   -228.47768785	    828.45357475	     10.28967219	     10.88111152	    -45.00000000	     41.49261724	    -45.00000000	    -45.00000000	   3501.68314965	   -104.41006432	    145.18724057	    179.99999979	   1090.65384560	     51.56504377	     25.66906714	     11.29863801	     14.42327989	     37.52015796	    -36.54626379	    -45.00000000	    -45.00000000	  -3518.78004267	    810.82693459	     18.99739492	   -179.99999979	   1788.30689143	    104.62007182	      8.34467356	    -11.61188965
      7.74000000	    -40.31337897	     -6.42569970	      7.86389755	   -225.34371070	    828.13832948	     10.25102951	     10.99234799	    -45.00000000	     41.63965481	    -45.00000000	    -45.00000000	   3501.81088500	   -104.26141865	    144.95097986	    179.99999979	   1090.82652874	     51.05559517	     25.54233271	     11.39749283	     14.24246056	     37.42118874	    -36.75673336	    -45.00000000	    -45.00000000	  -3518.87823520	    811.01925829	     19.07468611	   -179.99999979	   1788.05866610	    103.49421287	      8.29878967	    -11.38553128
      7.75000000	    -40.35046187	     -6.53834054	      7.87913455	   -221.98843748	    827.71241347	     10.19845376	     10.86283763	    -45.00000000	     41.74523452	    -45.00000000	    -45.00000000	   3502.16158763	   -104.08692448	    144.91536808	    179.99999979	   1091.08176646	     50.37301967	     25.31593589	     11.40916793	     14.79819471	     37.69228228	    -37.17639459	    -45.00000000	    -45.00000000	  -3518.87618915	    811.05889853	     19.08330570	   -179.99999979	   1787.91055127	    102.29994928	      8.24551804	    -11.07218885
      7.76000000	    -40.37934410	     -6.61851275	      7.89162123	   -218.39472393	    827.14655539	     10.12098006	     10.96967282	    -45.00000000	     41.80051853	    -45.00000000	    -45.00000000	   3502.32625708	   -103.93301342	    144.61282074	    179.99999979	   1091.19244748	     49.66323882	     25.13167555	     11.54259745	     14.73464213	     37.66463351	    -37.42628879	    -45.00000000	    -45.00000000	  -3518.94459166	    811.19682565	     19.22459509	   -179.99999979	   1787.74049462	    101.30485749	      8.18308779	    -10.80435119
      7.77000000	    -40.35724395	     -6.71946761	      8.02401502	   -214.57338493	    826.43233993	     10.02535041	     10.72218628	    -45.00000000	     41.85128302	    -45.00000000	    -45.00000000	   3502.66574468	   -103.72861316	    144.63696394	    179.99999979	   1091.36504058	     48.67536020	     24.86800052	     11.63673070	     15.32222028	     37.88373083	    -37.82861527	    -45.00000000	    -45.00000000	  -3519.09860328	    811.27187599	     19.13953340	   -179.99999979	   1787.47177005	    100.34692956	      8.15020658	    -10.46430034
      7.78000000	    -40.37872334	     -6.89463009	      8.13257258	   -210.53598559	    825.56743455	      9.92204276	     10.79945673	    -45.00000000	     41.94363169	    -45.00000000	    -45.00000000	   3502.91777192	   -103.63085688	    144.41881709	    179.99999979	   1091.42054609	     47.71844269	     24.62282531	     11.80566635	     15.40108087	     37.94288405	    -38.14869462	    -45.00000000	    -45.00000000	  -3519.12079382	    811.33747877	     19.25509924	   -179.99999979	   1787.38591837	     99.63401013	      8.07170437	    -10.20525004
      7.79000000	    -40.37743339	     -7.05371172	      8.25192173	   -206.31395612	    824.56414460	      9.83164696	     10.75912074	    -45.00000000	     42.01755748	    -45.00000000	    -45.00000000	   3503.20480686	   -103.49651274	    144.25227724	    179.99999979	   1091.48675905	     46.66931932	     24.37063193	     12.00883032	     15.56773619	     38.00026833	    -38.47030373	    -45.00000000	    -45.00000000	  -3519.27664050	    811.43571532	     19.29693360	   -179.99999979	   1787.26017034	     99.17821586	      8.01200470	     -9.94429170
      7.80000000	    -40.39777196	     -7.24756760	      8.35529931	   -201.90857723	    823.41673620	      9.75570008	     10.83038674	    -45.00000000	     42.15237622	    -45.00000000	    -45.00000000	   3503.46705595	   -103.41005616	    144.02566302	    179.99999979	   1091.54576014	     45.64817868	     24.14897955	     12.27332997	     15.57534497	     38.00805299	    -38.77989242	    -45.00000000	    -45.00000000	  -3519.39334936	    811.53377259	     19.37841934	   -179.99999979	   1787.21831597	     98.96582613	      7.93620998	     -9.77002429
      7.81000000	    -40.41429865	     -7.19806853	      8.21780079	   -197.33190644	    822.13072986	      9.70095507	     10.71720418	    -45.00000000	     42.33595815	    -45.00000000	    -43.98652592	   3503.81398507	   -103.45125223	    144.05178457	    179.99999979	   1091.46022325	     44.57561231	     23.92090172	     12.61300997	     15.94047852	     38.13043508	    -39.23115998	    -45.00000000	    -45.00000000	  -3519.61346884	    811.63555524	     19.42825679	   -179.99999979	   1787.16777784	     99.08158217	      7.88034664	     -9.63961565
      7.82000000	    -40.44592282	     -7.19877595	      8.05931986	   -192.57731529	    820.69790143	      9.65936618	     10.65443342	    -45.00000000	     42.59996311	    -45.00000000	    -42.92293958	   3504.09389206	   -103.54033702	    144.03293082	    179.99999979	   1091.38037937	     43.53516281	     23.70323667	     12.99087586	     16.11354609	     38.17016508	    -39.66797283	    -45.00000000	    -45.00000000	  -3519.81250961	    811.75235814	     19.49071973	   -179.99999979	   1787.18079779	     99.32591175	      7.81045714	     -9.51601203
      7.83000000	    -40.45549294	     -7.22475482	      7.93418529	   -187.64061835	    819.11253017	      9.62165966	     10.73110934	    -45.00000000	     42.98440850	    -45.00000000	    -41.86508894	   3504.40444955	   -103.71571654	    144.07344926	    179.99999979	   1091.28100969	     42.69930441	     23.48288967	     13.31903543	     16.22957906	     38.28271167	    -40.07152674	    -45.00000000	    -45.00000000	  -3519.97808649	    811.75753869	     19.65015331	   -179.99999979	   1787.24971376	     99.77494153	      7.73808405	     -9.44411327
      7.84000000	    -40.46668418	     -7.23606412	      7.81394329	   -182.50926122	    817.36195908	      9.57259463	     10.74040571	    -45.00000000	     43.28985836	    -45.00000000	    -40.76288909	   3504.74727454	   -103.86542935	    144.12108609	    179.99999979	   1091.17561063	     41.96661959	     23.25321193	     13.61251806	     16.46013021	     38.41552708	    -40.53236236	    -45.00000000	    -45.00000000	  -3520.15526262	    811.78012518	     19.77324763	   -179.99999979	   1787.35229456	    100.46772579	      7.67428932	     -9.38973382
      7.85000000	    -40.46674297	     -7.20644366	      7.70121505	   -177.20128936	    815.45596429	      9.51525918	     10.64027463	    -45.00000000	     43.50795319	    -45.00000000	    -39.65215229	   3505.12226050	   -104.03291062	    144.16566088	    179.99999979	   1091.02105499	     41.24967878	     23.00350770	     13.89742285	     16.86055470	     38.55373283	    -41.04536526	    -45.00000000	    -45.00000000	  -3520.41168586	    811.80025320	     19.82013401	   -179.99999979	   1787.48622955	    101.65643540	      7.64402299	     -9.36279992
